<svg width="19" height="18" viewBox="0 0 19 18" fill="none" xmlns="http://www.w3.org/2000/svg">
<path d="M0 4C0 1.79086 1.79086 0 4 0H19V14C19 16.2091 17.2091 18 15 18H0V4Z" fill="#04B0E7"/>
<path d="M11.072 8.656C11.568 8.768 11.96 9.016 12.248 9.4C12.544 9.776 12.692 10.208 12.692 10.696C12.692 11.416 12.444 11.98 11.948 12.388C11.452 12.796 10.756 13 9.86 13H5.672V4.54H9.728C10.592 4.54 11.268 4.732 11.756 5.116C12.252 5.5 12.5 6.04 12.5 6.736C12.5 7.232 12.368 7.648 12.104 7.984C11.848 8.312 11.504 8.536 11.072 8.656ZM8.024 7.9H9.212C9.804 7.9 10.1 7.656 10.1 7.168C10.1 6.664 9.804 6.412 9.212 6.412H8.024V7.9ZM9.392 11.104C9.984 11.104 10.28 10.856 10.28 10.36C10.28 10.104 10.2 9.908 10.04 9.772C9.888 9.636 9.668 9.568 9.38 9.568H8.024V11.104H9.392Z" fill="white"/>
</svg>
