<svg width="47" height="10" viewBox="0 0 47 10" fill="none" xmlns="http://www.w3.org/2000/svg">
<path d="M5.364 4.716C5.812 4.796 6.192 5.032 6.504 5.424C6.816 5.816 6.972 6.26 6.972 6.756C6.972 7.18 6.86 7.564 6.636 7.908C6.42 8.244 6.104 8.512 5.688 8.712C5.272 8.904 4.788 9 4.236 9H0.9V0.659999H4.08C4.648 0.659999 5.136 0.756 5.544 0.948C5.952 1.14 6.26 1.4 6.468 1.728C6.676 2.048 6.78 2.408 6.78 2.808C6.78 3.288 6.652 3.688 6.396 4.008C6.14 4.328 5.796 4.564 5.364 4.716ZM2.268 4.164H3.96C4.408 4.164 4.756 4.064 5.004 3.864C5.26 3.656 5.388 3.36 5.388 2.976C5.388 2.6 5.26 2.308 5.004 2.1C4.756 1.884 4.408 1.776 3.96 1.776H2.268V4.164ZM4.116 7.884C4.58 7.884 4.944 7.772 5.208 7.548C5.472 7.324 5.604 7.012 5.604 6.612C5.604 6.204 5.464 5.88 5.184 5.64C4.904 5.4 4.532 5.28 4.068 5.28H2.268V7.884H4.116ZM9.82659 0.12V9H8.45859V0.12H9.82659ZM17.6107 2.388V9H16.2427V8.22C16.0267 8.492 15.7427 8.708 15.3907 8.868C15.0467 9.02 14.6787 9.096 14.2867 9.096C13.7667 9.096 13.2987 8.988 12.8827 8.772C12.4747 8.556 12.1507 8.236 11.9107 7.812C11.6787 7.388 11.5627 6.876 11.5627 6.276V2.388H12.9187V6.072C12.9187 6.664 13.0667 7.12 13.3627 7.44C13.6587 7.752 14.0627 7.908 14.5747 7.908C15.0867 7.908 15.4907 7.752 15.7867 7.44C16.0907 7.12 16.2427 6.664 16.2427 6.072V2.388H17.6107ZM25.4756 5.532C25.4756 5.78 25.4596 6.004 25.4276 6.204H20.3756C20.4156 6.732 20.6116 7.156 20.9636 7.476C21.3156 7.796 21.7476 7.956 22.2596 7.956C22.9956 7.956 23.5156 7.648 23.8196 7.032H25.2956C25.0956 7.64 24.7316 8.14 24.2036 8.532C23.6836 8.916 23.0356 9.108 22.2596 9.108C21.6276 9.108 21.0596 8.968 20.5556 8.688C20.0596 8.4 19.6676 8 19.3796 7.488C19.0996 6.968 18.9596 6.368 18.9596 5.688C18.9596 5.008 19.0956 4.412 19.3676 3.9C19.6476 3.38 20.0356 2.98 20.5316 2.7C21.0356 2.42 21.6116 2.28 22.2596 2.28C22.8836 2.28 23.4396 2.416 23.9276 2.688C24.4156 2.96 24.7956 3.344 25.0676 3.84C25.3396 4.328 25.4756 4.892 25.4756 5.532ZM24.0476 5.1C24.0396 4.596 23.8596 4.192 23.5076 3.888C23.1556 3.584 22.7196 3.432 22.1996 3.432C21.7276 3.432 21.3236 3.584 20.9876 3.888C20.6516 4.184 20.4516 4.588 20.3876 5.1H24.0476Z" fill="#04B0E7"/>
<path d="M31.2859 4.716C31.7339 4.796 32.1139 5.032 32.4259 5.424C32.7379 5.816 32.8939 6.26 32.8939 6.756C32.8939 7.18 32.7819 7.564 32.5579 7.908C32.3419 8.244 32.0259 8.512 31.6099 8.712C31.1939 8.904 30.7099 9 30.1579 9H26.8219V0.659999H30.0019C30.5699 0.659999 31.0579 0.756 31.4659 0.948C31.8739 1.14 32.1819 1.4 32.3899 1.728C32.5979 2.048 32.7019 2.408 32.7019 2.808C32.7019 3.288 32.5739 3.688 32.3179 4.008C32.0619 4.328 31.7179 4.564 31.2859 4.716ZM28.1899 4.164H29.8819C30.3299 4.164 30.6779 4.064 30.9259 3.864C31.1819 3.656 31.3099 3.36 31.3099 2.976C31.3099 2.6 31.1819 2.308 30.9259 2.1C30.6779 1.884 30.3299 1.776 29.8819 1.776H28.1899V4.164ZM30.0379 7.884C30.5019 7.884 30.8659 7.772 31.1299 7.548C31.3939 7.324 31.5259 7.012 31.5259 6.612C31.5259 6.204 31.3859 5.88 31.1059 5.64C30.8259 5.4 30.4539 5.28 29.9899 5.28H28.1899V7.884H30.0379ZM37.2485 9.108C36.6245 9.108 36.0605 8.968 35.5565 8.688C35.0525 8.4 34.6565 8 34.3685 7.488C34.0805 6.968 33.9365 6.368 33.9365 5.688C33.9365 5.016 34.0845 4.42 34.3805 3.9C34.6765 3.38 35.0805 2.98 35.5925 2.7C36.1045 2.42 36.6765 2.28 37.3085 2.28C37.9405 2.28 38.5125 2.42 39.0245 2.7C39.5365 2.98 39.9405 3.38 40.2365 3.9C40.5325 4.42 40.6805 5.016 40.6805 5.688C40.6805 6.36 40.5285 6.956 40.2245 7.476C39.9205 7.996 39.5045 8.4 38.9765 8.688C38.4565 8.968 37.8805 9.108 37.2485 9.108ZM37.2485 7.92C37.6005 7.92 37.9285 7.836 38.2325 7.668C38.5445 7.5 38.7965 7.248 38.9885 6.912C39.1805 6.576 39.2765 6.168 39.2765 5.688C39.2765 5.208 39.1845 4.804 39.0005 4.476C38.8165 4.14 38.5725 3.888 38.2685 3.72C37.9645 3.552 37.6365 3.468 37.2845 3.468C36.9325 3.468 36.6045 3.552 36.3005 3.72C36.0045 3.888 35.7685 4.14 35.5925 4.476C35.4165 4.804 35.3285 5.208 35.3285 5.688C35.3285 6.4 35.5085 6.952 35.8685 7.344C36.2365 7.728 36.6965 7.92 37.2485 7.92ZM44.8648 5.652L47.0008 9H45.4528L44.0248 6.756L42.6808 9H41.2528L43.3888 5.748L41.2528 2.388H42.8008L44.2288 4.632L45.5728 2.388H47.0008L44.8648 5.652Z" fill="white"/>
</svg>
